<svg width="114" height="512" viewBox="0 0 114 512" fill="none" xmlns="http://www.w3.org/2000/svg">
<path d="M56.8893 113.779C88.3085 113.779 113.779 88.3084 113.779 56.8893C113.779 25.4702 88.3085 0 56.8893 0C25.4702 0 0 25.4702 0 56.8893C0 88.3084 25.4702 113.779 56.8893 113.779Z" fill="#606060"/>
<path d="M56.8893 312.889C88.3085 312.889 113.779 287.419 113.779 256C113.779 224.581 88.3085 199.111 56.8893 199.111C25.4702 199.111 0 224.581 0 256C0 287.419 25.4702 312.889 56.8893 312.889Z" fill="#606060"/>
<path d="M56.8893 512C88.3085 512 113.779 486.53 113.779 455.111C113.779 423.692 88.3085 398.221 56.8893 398.221C25.4702 398.221 0 423.692 0 455.111C0 486.53 25.4702 512 56.8893 512Z" fill="#606060"/>
</svg>
