<svg width="197" height="217" viewBox="0 0 197 217" fill="none" xmlns="http://www.w3.org/2000/svg">
<path d="M195.03 171.635L179.595 151.029C171.738 140.488 167.48 127.694 167.45 114.541V78.9124C167.431 62.3226 161.447 46.2944 150.595 33.76C139.742 21.2256 124.746 13.0231 108.35 10.6532V9.86406C108.35 7.24795 107.312 4.73898 105.465 2.88911C103.618 1.03925 101.112 0 98.5 0C95.8876 0 93.3822 1.03925 91.535 2.88911C89.6878 4.73898 88.65 7.24795 88.65 9.86406V10.6532C72.2537 13.0231 57.2576 21.2256 46.4051 33.76C35.5527 46.2944 29.5694 62.3226 29.55 78.9124V114.541C29.5219 127.696 25.2671 140.493 17.4148 151.038L1.97 171.635C0.872447 173.1 0.204084 174.843 0.0398055 176.667C-0.124472 178.492 0.221824 180.326 1.0399 181.964C1.85797 183.603 3.11549 184.981 4.67155 185.944C6.22762 186.907 8.02074 187.417 9.85 187.417H60.4987C62.6487 195.876 67.5519 203.377 74.4337 208.734C81.3154 214.092 89.7835 217 98.5 217C107.217 217 115.685 214.092 122.566 208.734C129.448 203.377 134.351 195.876 136.501 187.417H187.15C188.979 187.417 190.772 186.907 192.328 185.944C193.885 184.981 195.142 183.603 195.96 181.964C196.778 180.326 197.124 178.492 196.96 176.667C196.796 174.843 196.128 173.1 195.03 171.635ZM98.5 197.281C95.0573 197.271 91.6779 196.354 88.7008 194.623C85.7237 192.891 83.2536 190.406 81.5383 187.417H115.462C113.746 190.406 111.276 192.891 108.299 194.623C105.322 196.354 101.943 197.271 98.5 197.281ZM29.55 167.689L33.1748 162.856C43.5729 148.896 49.2092 131.957 49.25 114.541V78.9124C49.25 65.8319 54.4388 53.2871 63.675 44.0377C72.9112 34.7884 85.4381 29.5922 98.5 29.5922C111.562 29.5922 124.089 34.7884 133.325 44.0377C142.561 53.2871 147.75 65.8319 147.75 78.9124V114.541C147.785 131.965 153.426 148.914 163.835 162.875L167.45 167.689H29.55Z" fill="white"/>
</svg>
