<svg width="212" height="217" viewBox="0 0 212 217" fill="none" xmlns="http://www.w3.org/2000/svg">
<path d="M147.695 128.317C173.652 91.6629 164.971 40.9079 128.317 14.9568C91.6629 -10.9943 40.9079 -2.3191 14.9568 34.3411C-10.9943 70.995 -2.3191 121.744 34.3411 147.695C60.503 166.217 95.092 167.643 122.686 151.347L182.644 210.945C189.117 217.76 199.889 218.033 206.703 211.559C213.518 205.091 213.791 194.32 207.323 187.505C207.119 187.288 206.92 187.09 206.703 186.885L147.695 128.317ZM81.2762 133.873C52.3115 133.879 28.8284 110.415 28.8098 81.4499C28.8036 52.4851 52.2681 29.002 81.239 28.9896C110.167 28.9772 133.637 52.4045 133.693 81.3321C133.743 110.303 110.291 133.823 81.3135 133.873C81.3011 133.873 81.2949 133.873 81.2762 133.873Z" fill="white"/>
</svg>
