<svg width="28" height="35" viewBox="0 0 28 35" fill="none" xmlns="http://www.w3.org/2000/svg">
<path d="M18.7625 12.4902C18.3165 12.4902 17.9551 12.8517 17.9551 13.2976V28.557C17.9551 29.0026 18.3165 29.3644 18.7625 29.3644C19.2084 29.3644 19.5698 29.0026 19.5698 28.557V13.2976C19.5698 12.8517 19.2084 12.4902 18.7625 12.4902Z" fill="#DB4C3F"/>
<path d="M9.23511 12.4902C8.78916 12.4902 8.42773 12.8517 8.42773 13.2976V28.557C8.42773 29.0026 8.78916 29.3644 9.23511 29.3644C9.68106 29.3644 10.0425 29.0026 10.0425 28.557V13.2976C10.0425 12.8517 9.68106 12.4902 9.23511 12.4902Z" fill="#DB4C3F"/>
<path d="M2.29307 10.2635V30.1555C2.29307 31.3313 2.7242 32.4354 3.47733 33.2277C4.22699 34.0221 5.27027 34.4731 6.36211 34.475H21.6379C22.73 34.4731 23.7733 34.0221 24.5227 33.2277C25.2758 32.4354 25.7069 31.3313 25.7069 30.1555V10.2635C27.204 9.86616 28.1741 8.41982 27.9739 6.8836C27.7733 5.3477 26.4648 4.19877 24.9156 4.19845H20.7819V3.18923C20.7867 2.34055 20.4511 1.5256 19.8503 0.926063C19.2495 0.32684 18.4333 -0.00683229 17.5846 0.000106082H10.4154C9.5667 -0.00683229 8.75049 0.32684 8.14969 0.926063C7.54889 1.5256 7.21333 2.34055 7.21806 3.18923V4.19845H3.08436C1.53521 4.19877 0.226701 5.3477 0.026119 6.8836C-0.174148 8.41982 0.795963 9.86616 2.29307 10.2635V10.2635ZM21.6379 32.8602H6.36211C4.98169 32.8602 3.90782 31.6744 3.90782 30.1555V10.3345H24.0922V30.1555C24.0922 31.6744 23.0183 32.8602 21.6379 32.8602ZM8.83281 3.18923C8.82744 2.76883 8.9927 2.3642 9.29105 2.06743C9.58909 1.77065 9.99467 1.6076 10.4154 1.61485H17.5846C18.0053 1.6076 18.4109 1.77065 18.7089 2.06743C19.0073 2.36388 19.1726 2.76883 19.1672 3.18923V4.19845H8.83281V3.18923ZM3.08436 5.8132H24.9156C25.7183 5.8132 26.3689 6.46383 26.3689 7.26647C26.3689 8.06912 25.7183 8.71975 24.9156 8.71975H3.08436C2.28172 8.71975 1.63109 8.06912 1.63109 7.26647C1.63109 6.46383 2.28172 5.8132 3.08436 5.8132V5.8132Z" fill="#DB4C3F"/>
<path d="M13.9988 12.4902C13.5528 12.4902 13.1914 12.8517 13.1914 13.2976V28.557C13.1914 29.0026 13.5528 29.3644 13.9988 29.3644C14.4447 29.3644 14.8062 29.0026 14.8062 28.557V13.2976C14.8062 12.8517 14.4447 12.4902 13.9988 12.4902Z" fill="#DB4C3F"/>
</svg>
